<?xml version="1.0" standalone="no"?><!DOCTYPE svg PUBLIC "-//W3C//DTD SVG 1.1//EN" "http://www.w3.org/Graphics/SVG/1.1/DTD/svg11.dtd"><svg t="1582769504979" class="icon" viewBox="0 0 1024 1024" version="1.1" xmlns="http://www.w3.org/2000/svg" p-id="873" xmlns:xlink="http://www.w3.org/1999/xlink" width="200" height="200"><defs><style type="text/css"></style></defs><path d="M430.07278084 320.79729971C343.75588765 353.57378857 282.40662706 437.07886768 282.40662706 534.89443185c0 126.43132386 102.49801264 228.94171263 228.94171263 228.94171263s228.94171263-102.51038813 228.94171262-228.94171263c0-97.81491302-61.34926122-181.3199915-147.66094338-214.09713213-0.37972871 0.02214514-0.76010795 0.02214514-1.15156038 0.02214513-10.11653818 0-18.32205853-8.18207229-18.32205854-18.31033485 0-10.10611675 8.20552036-18.31098596 18.32205854-18.31098595l0-0.1784659c0.19018962 0.06773896 0.39145243 0.134175 0.57056948 0.1784659 3.84483128 0.134175 7.37767345 1.43098359 10.26178574 3.53284216 100.58699545 37.0466427 172.32114485 133.72106727 172.32114486 247.16346564 0 145.39169147-117.88059605 263.28336008-263.28336009 263.28336006-145.40797507 0-263.28336008-117.89166861-263.28336007-263.28336006 0-113.44239773 71.74066271-210.11682294 172.32114486-247.16346564 2.88997447-2.10185858 6.42216485-3.39866716 10.25657535-3.53284216 0.18953848-0.04429089 0.38559026-0.11137809 0.57578049-0.1784659l0 0.1784659c10.11653818 0 18.316197 8.20552036 18.316197 18.31098595 0 10.12826189-8.19965881 18.31033483-18.316197 18.31033485C430.83288879 320.81944485 430.4531607 320.81944485 430.07278084 320.79729971zM488.4539072 248.76093084c0-12.676937 10.16148023-22.93872275 22.89378071-22.93872275 12.64306753 0 22.8937807 10.26178575 22.89378071 22.93872275l0 228.83033389c0 12.6756341-10.16148023 22.96086789-22.8937807 22.96086789-12.64306753 0-22.8937807-10.2852338-22.89378072-22.96086789L488.4539072 248.76093084z" p-id="874"></path></svg>